<?xml version="1.0" encoding="iso-8859-1"?>
<!-- Uploaded to: SVG Repo, www.svgrepo.com, Generator: SVG Repo Mixer Tools -->
<svg fill="#000000" height="800px" width="800px" version="1.1" id="Capa_1" xmlns="http://www.w3.org/2000/svg" xmlns:xlink="http://www.w3.org/1999/xlink" 
	 viewBox="0 0 463.001 463.001" xml:space="preserve">
<g>
	<path d="M327.979,199.685l36.833-66.3l53.644-22.99c2.27-0.973,3.916-3.001,4.4-5.423l8-40c0.419-2.096-0.076-4.272-1.362-5.98
		s-3.239-2.787-5.37-2.964l-95.001-7.917l-87.059-31.658c-0.616-0.224-1.26-0.367-1.913-0.423l-184-16
		c-1.381-0.121-2.766,0.145-4.004,0.764l-48,24c-3.338,1.669-4.941,5.539-3.761,9.08l16,48c0.935,2.804,3.428,4.797,6.369,5.091
		l70.08,7.008l-12.297,30.744c-0.238,0.596-0.399,1.219-0.479,1.855l-7.841,62.725l-15.425,30.851
		c-0.709,1.417-0.951,3.023-0.69,4.587l7.512,45.075L49.261,291.34c-2.158,3.237-1.483,7.586,1.555,10.017l39.673,31.739
		l31.665,31.705c1.446,1.448,3.368,2.201,5.309,2.2c1.324,0,2.657-0.35,3.854-1.067l38.601-23.137l78.33-7.833
		c2.089-0.209,3.995-1.284,5.254-2.963l22.402-29.87l29.417-7.354c2.812-0.703,4.967-2.963,5.536-5.805l7.391-36.954l21.415-14.277
		c3.147-2.098,4.24-6.211,2.548-9.594L327.979,199.685z M307.341,241.26c-1.655,1.103-2.804,2.819-3.194,4.77l-7.069,35.346
		l-27.396,6.849c-1.671,0.417-3.147,1.398-4.181,2.776l-22.024,29.365l-76.722,7.672c-1.1,0.11-2.162,0.462-3.11,1.03
		l-35.017,20.989l-27.821-27.856c-0.197-0.197-0.404-0.383-0.622-0.557l-34.63-27.705l12.186-18.279
		c1.057-1.585,1.471-3.514,1.158-5.393L71.3,224.673l14.909-29.819c0.38-0.76,0.628-1.58,0.734-2.424l7.88-63.042l15.641-39.103
		c0.875-2.188,0.671-4.661-0.551-6.676c-1.222-2.015-3.321-3.338-5.666-3.573L29.08,72.521L16.673,35.3l40.288-20.144
		l180.906,15.731l87.071,31.662c0.625,0.228,1.277,0.371,1.94,0.426l87.619,7.302l-5.577,27.885l-52.374,22.446
		c-1.527,0.655-2.794,1.798-3.602,3.251l-40,72c-1.202,2.165-1.259,4.782-0.152,6.997l13.039,26.078L307.341,241.26z"/>
	<path d="M430.209,226.855l16-32c1.444-2.887,0.878-6.375-1.405-8.657l-16-16c-2.929-2.929-7.678-2.929-10.606,0l-32,32
		c-2.145,2.145-2.787,5.371-1.626,8.173c1.161,2.803,3.896,4.63,6.929,4.63h12.894l13.803,13.803
		c1.417,1.418,3.33,2.197,5.303,2.197c0.399,0,0.801-0.032,1.202-0.097C427.082,230.518,429.131,229.011,430.209,226.855z
		 M421.447,210.84l-8.642-8.642c-0.957-0.957-2.145-1.628-3.434-1.96l14.13-14.13l6.875,6.875L421.447,210.84z"/>
	<path d="M378.855,230.209c3.705-1.852,5.207-6.357,3.354-10.062c-1.852-3.705-6.357-5.208-10.062-3.354l-16,8
		c-3.705,1.852-5.207,6.357-3.354,10.062c1.314,2.628,3.962,4.147,6.714,4.147c1.127,0,2.271-0.255,3.348-0.793L378.855,230.209z"/>
	<path d="M375.501,248.001h-8c-4.142,0-7.5,3.358-7.5,7.5s3.358,7.5,7.5,7.5h8c4.142,0,7.5-3.358,7.5-7.5
		S379.643,248.001,375.501,248.001z"/>
	<path d="M447.501,175.001h8c4.142,0,7.5-3.358,7.5-7.5s-3.358-7.5-7.5-7.5h-8c-4.142,0-7.5,3.358-7.5,7.5
		S443.359,175.001,447.501,175.001z"/>
	<path d="M302.169,380.147c-1.27-2.541-3.867-4.146-6.708-4.146h-24c-1.791,0-3.521,0.641-4.881,1.806l-17.386,14.902l-27.706,7.556
		c-2.168,0.591-3.957,2.124-4.874,4.175c-0.917,2.051-0.866,4.405,0.139,6.415l16,32c1.27,2.541,3.867,4.146,6.708,4.146h24
		c3.228,0,6.094-2.066,7.115-5.128l7.615-22.845l23.27-31.026C303.166,385.728,303.44,382.688,302.169,380.147z M265.461,411.001
		c-0.484,0.645-0.86,1.364-1.115,2.128l-6.291,18.872h-13.959l-9.836-19.671l20.507-5.593c1.072-0.292,2.064-0.819,2.908-1.542
		l16.56-14.194h6.226L265.461,411.001z"/>
	<path d="M326.169,428.147c-1.27-2.541-3.867-4.146-6.708-4.146h-16c-2.841,0-5.438,1.605-6.708,4.146l-8,16
		c-1.853,3.705-0.351,8.21,3.354,10.062l16,8c1.056,0.528,2.205,0.792,3.354,0.792s2.298-0.264,3.354-0.792l16-8
		c3.705-1.852,5.207-6.357,3.354-10.062L326.169,428.147z M311.461,447.115l-5.938-2.969l2.573-5.146h6.729l2.573,5.146
		L311.461,447.115z"/>
	<path d="M419.404,329.121c-2.21-1.367-4.973-1.491-7.297-0.328l-16,8c-1.88,0.94-3.28,2.626-3.857,4.647l-15.466,54.131
		l-4.429,4.429h-4.894c-4.142,0-7.5,3.358-7.5,7.5s3.358,7.5,7.5,7.5h8c1.989,0,3.897-0.79,5.303-2.197l6.531-6.531l29.984-7.496
		c3.339-0.834,5.681-3.834,5.681-7.276v-56C422.961,332.902,421.615,330.487,419.404,329.121z M407.961,385.645l-13.721,3.431
		l11.526-40.342l2.195-1.098V385.645z"/>
	<path d="M455.461,248.001c-4.142,0-7.5,3.358-7.5,7.5v11.986l-20.66,13.773c-2.086,1.391-3.34,3.732-3.34,6.24v24
		c0,2.766,1.522,5.308,3.961,6.613c1.109,0.593,2.325,0.887,3.539,0.887c1.455,0,2.906-0.423,4.161-1.26l24-16
		c2.086-1.391,3.34-3.732,3.34-6.24v-23.897c0.001-0.073,0.001-0.146,0-0.219v-15.884
		C462.961,251.359,459.603,248.001,455.461,248.001z M447.961,291.487l-9,6v-5.973l9-6V291.487z"/>
	<path d="M196.764,426.197c-2.929-2.929-7.678-2.929-10.606,0c-2.929,2.929-2.929,7.678,0,10.606l8,8
		c1.464,1.464,3.384,2.197,5.303,2.197s3.839-0.732,5.303-2.197c2.929-2.929,2.929-7.678,0-10.606L196.764,426.197z"/>
	<path d="M151.461,384.001h-13.589c-6.369,0-12.094,3.539-14.942,9.235c-2.848,5.696-2.244,12.399,1.577,17.494l12.954,17.271
		c1.433,1.911,3.667,3,6,3c0.493,0,0.99-0.049,1.485-0.149c2.836-0.573,5.09-2.726,5.792-5.533l8-32
		c0.561-2.24,0.057-4.614-1.364-6.435S153.771,384.001,151.461,384.001z M140.007,406.395l-3.499-4.666
		c-0.419-0.56-0.474-1.16-0.161-1.786c0.313-0.625,0.826-0.943,1.526-0.943h3.983L140.007,406.395z"/>
</g>
</svg>